PathFileType  4	(X/Y/Z) C:\Users\antoi\Documents\MyRepositories\mobilecap\ResultsAnalysis
DataRate	CameraRate	NumFrames	NumMarkers	Units	OrigDataRate	OrigDataStartFrame	OrigNumFrames
100.0	100.0	4	51	mm	100.0	229	1831
Frame#	Time	r_knee			r_shank_antsup			r_ankle			r_calc			r_5meta			r_toe			L_knee			L_shank_antsup			L_ankle			L_calc			L_5meta			L_toe			r_sh2			r_sh3			r_sh4			L_sh2			L_sh3			r_thigh1			r_thigh2			r_thigh3			r_thigh4			r_thigh5			L_thigh1			L_thigh2			L_thigh3			L_thigh4			r.ASIS			r.PSIS			L.ASIS			L.PSIS			C7			R_Shoulder			L_Shoulder			R_Sternum			L_Sternum			R_humerus			R_elbow_med			R_elbow_lat			R_forearm			R_wrist_radius			R_wrist_ulna			L_humerus			L_elbow_med			L_elbow_lat			L_forearm			L_wrist_radius			L_wrist_ulna			R_HJC			L_HJC			R_HJC_reg			L_HJC_reg			
		X1	Y1	Z1	X2	Y2	Z2	X3	Y3	Z3	X4	Y4	Z4	X5	Y5	Z5	X6	Y6	Z6	X7	Y7	Z7	X8	Y8	Z8	X9	Y9	Z9	X10	Y10	Z10	X11	Y11	Z11	X12	Y12	Z12	X13	Y13	Z13	X14	Y14	Z14	X15	Y15	Z15	X16	Y16	Z16	X17	Y17	Z17	X18	Y18	Z18	X19	Y19	Z19	X20	Y20	Z20	X21	Y21	Z21	X22	Y22	Z22	X23	Y23	Z23	X24	Y24	Z24	X25	Y25	Z25	X26	Y26	Z26	X27	Y27	Z27	X28	Y28	Z28	X29	Y29	Z29	X30	Y30	Z30	X31	Y31	Z31	X32	Y32	Z32	X33	Y33	Z33	X34	Y34	Z34	X35	Y35	Z35	X36	Y36	Z36	X37	Y37	Z37	X38	Y38	Z38	X39	Y39	Z39	X40	Y40	Z40	X41	Y41	Z41	X42	Y42	Z42	X43	Y43	Z43	X44	Y44	Z44	X45	Y45	Z45	X46	Y46	Z46	X47	Y47	Z47	X48	Y48	Z48	X49	Y49	Z49	X50	Y50	Z50	X51	Y51	Z51	

229	2.28000000	-196.82094	520.04608	-399.64907	-140.37857	425.48935	-406.45743	-282.82130	118.86542	-427.39069	-368.50536	72.45641	-471.34170	-174.06772	48.62207	-379.42221	-115.17876	78.28692	-441.09956	-198.25257	520.31965	-863.83331	-181.61779	435.51889	-884.75076	-288.20908	120.10407	-826.03107	-368.30255	72.10442	-765.60130	-181.42254	51.25665	-864.13339	-119.17736	81.29119	-805.07373	-179.80089	321.56225	-383.86208	-198.39061	455.17484	-364.90519	-252.61147	353.21643	-361.19755	-269.02354	457.99172	-878.56820	-286.05285	336.32888	-869.76440	-436.81662	728.29697	-431.01019	-340.65112	687.40244	-423.65323	-341.69350	629.75004	-386.30031	-481.85529	625.41444	-423.40966	-374.04133	587.81883	-404.14376	-400.12930	729.25634	-834.16039	-273.08919	671.47602	-843.30146	-446.66463	635.20428	-866.68057	-324.67021	573.67424	-875.71270	-437.95601	766.33543	-505.79591	-599.66155	855.07742	-572.68640	-449.45516	764.91016	-758.06074	-605.87874	859.39361	-679.88763	-71.90616	1077.43607	-645.56207	-55.92104	988.27356	-500.94460	-81.08679	1002.24317	-800.02516	-64.24746	921.79367	-621.00595	-70.40700	920.13693	-676.36803	-74.75055	881.63335	-398.60176	-183.06693	704.22346	-329.62076	-141.41285	753.52713	-265.96807	-12.33582	633.74262	-257.65901	64.89769	583.91182	-279.14593	36.47778	565.37778	-248.05739	-128.87973	931.44339	-900.89275	-241.74519	708.15571	-919.15184	-207.91530	740.42962	-993.13985	-142.15549	695.88921	-1001.84889	-14.72648	575.95555	-988.08045	-42.03215	549.42055	-1003.86043	-561.31881	695.39447	-522.97768	-571.29897	702.66346	-729.56990	-527.23051	711.64765	-538.39685	-536.87249	718.34183	-704.65312	
230	2.29000000	-198.12106	519.61514	-399.06569	-141.16278	425.40828	-405.92250	-283.09335	118.61557	-427.23144	-368.65075	72.34488	-471.45675	-174.14240	48.65644	-379.25495	-115.35635	78.71109	-440.71882	-199.41698	519.89559	-864.91847	-181.99079	435.05976	-885.51251	-288.56131	119.88845	-826.21815	-368.21514	71.94683	-765.73938	-181.46187	51.34305	-864.26082	-119.42908	81.95096	-805.31344	-180.28378	321.36133	-383.46398	-199.18194	455.06661	-364.36562	-253.03339	352.98559	-360.95436	-269.42108	457.56644	-879.92307	-286.16302	335.99486	-870.88246	-442.51855	722.27758	-430.75158	-345.51123	683.37777	-424.01249	-345.27727	626.09368	-385.89802	-485.36992	618.50918	-422.82159	-376.84274	583.65994	-403.38864	-406.30908	723.85996	-833.68901	-278.19190	669.34397	-843.70352	-450.54358	628.96961	-867.07700	-326.96219	570.61032	-876.54441	-441.50660	756.41131	-505.50986	-603.33629	845.16351	-572.76408	-453.27109	754.68242	-758.47578	-609.59548	849.20097	-679.88766	-72.71935	1060.13927	-645.85038	-57.15338	972.04482	-502.52675	-82.00071	985.69921	-799.54948	-67.04506	904.37009	-621.31867	-73.11542	902.63041	-676.62036	-72.45407	866.15817	-399.94587	-175.38989	686.44843	-329.04340	-134.01758	736.84739	-266.14035	-1.74266	620.24047	-260.62594	76.27500	572.50900	-283.78966	49.05098	553.05377	-252.23279	-126.69966	915.68543	-901.22507	-234.10689	689.64833	-922.78349	-199.33780	723.45335	-996.12429	-132.01529	680.84726	-1003.06206	-1.23099	564.98115	-986.66319	-27.21052	537.73800	-1003.34938	-564.91358	685.47878	-522.83322	-575.08093	692.45961	-729.42596	-530.99827	701.67468	-538.04746	-540.74091	707.95879	-704.78697	
231	2.30000000	-199.40462	519.24590	-398.68501	-141.90639	425.29040	-405.69081	-283.35777	118.37662	-427.14997	-368.67916	72.23418	-471.63323	-174.22935	48.66814	-379.10513	-115.55916	79.04761	-440.37734	-200.43851	519.52182	-865.70512	-182.16929	434.73743	-886.10990	-288.80549	119.74920	-826.35989	-368.04442	71.77045	-765.96106	-181.52688	51.43482	-864.26614	-119.59159	82.39464	-805.34997	-180.79913	321.33340	-383.19992	-199.87501	454.95163	-364.15179	-254.04850	352.18474	-360.44426	-269.63362	457.31508	-881.04946	-286.44889	335.43546	-871.57942	-447.80406	716.56984	-430.58706	-350.36763	679.42291	-424.43084	-348.58608	622.58699	-385.59329	-488.57973	612.12819	-422.19930	-379.46649	579.60101	-402.80783	-412.21072	718.57857	-833.06249	-282.72448	667.21034	-843.48990	-454.12986	623.03812	-867.42685	-329.10192	567.74418	-877.41366	-444.88864	746.78147	-505.15059	-606.94747	835.30450	-572.86108	-456.82021	744.55450	-758.48212	-613.18544	839.21530	-679.74384	-73.82491	1043.63547	-646.22109	-58.63257	956.54019	-504.10131	-83.10080	969.93257	-799.24604	-69.88899	887.74504	-621.50863	-75.92993	885.93753	-676.84764	-70.33189	851.55500	-401.31369	-167.78056	669.73723	-328.67300	-126.64882	721.20141	-266.50871	8.74208	607.88995	-263.65759	87.46229	562.19260	-288.48219	61.40871	541.91425	-256.44446	-124.67992	900.62913	-901.48293	-225.94586	671.96564	-926.20405	-190.74219	707.37824	-998.83281	-121.90719	666.71448	-1003.95946	12.17467	555.06417	-984.90649	-12.54445	527.13774	-1002.49944	-568.33804	675.75759	-522.49872	-578.58156	682.33720	-729.10096	-534.46620	691.68180	-537.70094	-544.21251	697.79204	-704.69597	
232	2.31000000	-200.61711	519.01530	-398.44365	-142.55552	425.26493	-405.52309	-283.57051	118.23215	-427.07718	-368.57226	72.13891	-471.63845	-174.31847	48.68861	-379.02323	-115.69593	79.39081	-440.15071	-201.44319	519.35692	-866.45686	-182.31089	434.41463	-886.32027	-288.99722	119.65714	-826.51622	-368.13156	71.72442	-765.99381	-181.58989	51.58811	-864.26609	-119.72376	82.71030	-805.28349	-181.31585	321.40162	-383.15828	-200.51111	454.81814	-364.05107	-255.09656	351.36004	-360.02222	-269.77181	457.01051	-881.53955	-286.75653	335.01339	-871.98556	-452.55143	711.01248	-430.57398	-354.58317	676.11718	-424.99460	-351.70109	619.24679	-385.68857	-491.56081	605.99550	-421.66200	-381.82388	575.53183	-402.45741	-417.73764	713.41603	-832.24038	-286.83947	665.17048	-842.86308	-457.33695	617.38045	-867.68519	-331.12715	564.96445	-878.09602	-448.12455	737.67138	-504.91665	-610.52852	825.56650	-573.00344	-460.06030	735.25420	-758.15966	-616.65175	829.46915	-679.68932	-75.15144	1027.97149	-646.60885	-60.20612	941.89697	-505.37172	-84.42339	954.86931	-798.89363	-72.79022	872.00326	-621.70215	-78.82919	870.16830	-676.98863	-68.31847	837.74420	-402.85872	-160.24488	654.01974	-328.47884	-119.36453	706.54439	-266.97850	19.04216	596.73910	-266.78913	98.35852	553.05940	-293.07782	73.53139	532.30921	-260.33337	-122.72812	886.31515	-901.78456	-217.42886	655.30572	-929.31806	-182.16346	692.10637	-1001.08779	-111.80218	653.62714	-1004.77124	25.36839	546.26912	-983.00235	1.97658	517.64345	-1001.35322	-571.40940	666.24727	-522.31231	-581.53271	672.62384	-728.92703	-537.56697	682.12825	-537.55772	-547.14893	688.23550	-704.50481	
